<svg width="24" height="24" viewBox="0 0 24 24" fill="none" xmlns="http://www.w3.org/2000/svg">
<path d="M10.5 20.249C10.5 20.4479 10.421 20.6387 10.2803 20.7794C10.1397 20.92 9.94891 20.999 9.75 20.999H4.5C4.10218 20.999 3.72064 20.841 3.43934 20.5597C3.15804 20.2784 3 19.8968 3 19.499V4.49902C3 4.1012 3.15804 3.71967 3.43934 3.43836C3.72064 3.15706 4.10218 2.99902 4.5 2.99902H9.75C9.94891 2.99902 10.1397 3.07804 10.2803 3.21869C10.421 3.35935 10.5 3.55011 10.5 3.74902C10.5 3.94794 10.421 4.1387 10.2803 4.27935C10.1397 4.42001 9.94891 4.49902 9.75 4.49902H4.5V19.499H9.75C9.94891 19.499 10.1397 19.578 10.2803 19.7187C10.421 19.8593 10.5 20.0501 10.5 20.249ZM20.7806 11.4684L17.0306 7.7184C16.8899 7.57767 16.699 7.49861 16.5 7.49861C16.301 7.49861 16.1101 7.57767 15.9694 7.7184C15.8286 7.85913 15.7496 8.05 15.7496 8.24902C15.7496 8.44805 15.8286 8.63892 15.9694 8.77965L18.4397 11.249H9.75C9.55109 11.249 9.36032 11.328 9.21967 11.4687C9.07902 11.6093 9 11.8001 9 11.999C9 12.1979 9.07902 12.3887 9.21967 12.5294C9.36032 12.67 9.55109 12.749 9.75 12.749H18.4397L15.9694 15.2184C15.8286 15.3591 15.7496 15.55 15.7496 15.749C15.7496 15.948 15.8286 16.1389 15.9694 16.2796C16.1101 16.4204 16.301 16.4994 16.5 16.4994C16.699 16.4994 16.8899 16.4204 17.0306 16.2796L20.7806 12.5296C20.8504 12.46 20.9057 12.3773 20.9434 12.2862C20.9812 12.1952 21.0006 12.0976 21.0006 11.999C21.0006 11.9005 20.9812 11.8029 20.9434 11.7118C20.9057 11.6208 20.8504 11.5381 20.7806 11.4684Z" fill="#212121"/>
</svg>
